<svg id="svg" version="1.1" xmlns="http://www.w3.org/2000/svg" xmlns:xlink="http://www.w3.org/1999/xlink" width="400" height="225" viewBox="0, 0, 400,225"><g id="svgg"><path id="path0" d="M184.958 94.655 C 183.407 95.081,182.225 95.944,181.498 97.181 L 180.867 98.255 180.795 108.723 C 180.711 120.928,180.729 121.099,182.298 122.668 C 184.632 125.002,190.798 125.214,193.631 123.057 C 195.262 121.815,195.595 120.637,195.604 116.095 L 195.611 112.324 193.247 112.324 L 190.884 112.324 190.883 115.307 C 190.883 118.592,190.604 119.593,189.533 120.153 C 188.626 120.627,186.902 120.376,186.193 119.666 L 185.594 119.067 185.530 109.733 C 185.455 98.716,185.537 98.368,188.182 98.368 C 190.238 98.368,190.884 99.523,190.884 103.200 L 190.884 105.796 193.247 105.796 L 195.611 105.796 195.598 102.364 C 195.582 98.056,195.173 96.873,193.218 95.496 C 191.662 94.399,187.450 93.970,184.958 94.655 M161.103 94.684 C 160.755 95.032,160.925 118.904,161.285 120.285 C 162.632 125.457,172.604 126.311,175.189 121.475 C 175.689 120.540,175.689 120.539,175.689 107.597 L 175.689 94.654 173.438 94.654 L 171.187 94.654 171.075 106.861 L 170.962 119.067 170.338 119.691 C 169.485 120.544,167.328 120.607,166.523 119.803 L 166.010 119.290 165.898 106.972 L 165.785 94.654 163.523 94.590 C 162.278 94.555,161.189 94.597,161.103 94.684 M200.676 94.796 C 200.612 94.965,200.585 101.638,200.617 109.623 L 200.675 124.142 202.979 124.206 L 205.282 124.270 205.342 118.353 L 205.402 112.437 206.548 112.370 C 208.008 112.285,207.965 112.223,209.194 116.151 C 209.755 117.946,210.553 120.478,210.967 121.778 L 211.720 124.142 214.133 124.206 C 215.459 124.241,216.545 124.195,216.545 124.103 C 216.545 124.012,215.619 121.212,214.487 117.881 L 212.428 111.825 213.481 110.925 C 215.423 109.265,215.532 108.868,215.532 103.433 C 215.532 97.448,214.992 96.231,211.830 95.082 C 210.408 94.565,200.858 94.320,200.676 94.796 M210.168 99.542 C 210.751 100.125,210.784 100.280,210.873 102.806 C 211.038 107.486,210.467 108.329,207.203 108.220 L 205.402 108.160 205.341 103.777 C 205.307 101.367,205.333 99.255,205.399 99.084 C 205.642 98.451,209.442 98.816,210.168 99.542 " stroke="none" fill="#f0f3f8" fill-rule="evenodd"></path><path id="path1" d="M243.106 91.503 C 242.853 92.060,242.584 92.819,242.510 93.191 C 242.436 93.562,242.294 93.866,242.196 93.866 C 242.097 93.866,241.946 94.195,241.860 94.598 C 241.774 95.000,241.625 95.431,241.528 95.554 C 241.431 95.678,241.222 96.235,241.062 96.792 C 240.903 97.349,240.639 98.005,240.476 98.249 C 240.313 98.494,240.180 98.833,240.180 99.003 C 240.180 99.174,240.035 99.632,239.859 100.022 C 238.971 101.981,238.642 102.821,238.499 103.489 C 238.414 103.891,238.250 104.221,238.136 104.221 C 238.022 104.221,237.929 104.378,237.929 104.571 C 237.929 104.763,237.724 105.371,237.473 105.921 C 237.223 106.472,236.957 107.226,236.882 107.597 C 236.808 107.968,236.659 108.272,236.550 108.272 C 236.442 108.272,236.353 108.430,236.353 108.622 C 236.353 108.815,236.148 109.423,235.898 109.973 C 235.647 110.523,235.381 111.277,235.307 111.649 C 235.232 112.020,235.091 112.324,234.993 112.324 C 234.894 112.324,234.743 112.653,234.658 113.056 C 234.572 113.458,234.311 114.212,234.077 114.732 C 233.843 115.251,233.652 115.833,233.652 116.026 C 233.652 116.218,233.551 116.376,233.427 116.376 C 233.303 116.376,233.202 116.528,233.202 116.714 C 233.202 117.260,237.670 117.206,237.840 116.657 C 237.907 116.441,238.040 116.111,238.136 115.926 C 238.232 115.740,238.446 115.056,238.613 114.406 C 238.779 113.756,238.997 113.225,239.097 113.225 C 239.198 113.225,239.280 113.067,239.280 112.875 C 239.280 112.682,239.471 112.100,239.704 111.580 C 239.938 111.061,240.199 110.307,240.285 109.904 L 240.441 109.173 245.682 109.173 L 250.924 109.173 251.309 110.242 C 251.521 110.830,251.783 111.514,251.891 111.761 C 251.999 112.009,252.356 112.921,252.685 113.787 C 253.014 114.654,253.450 115.740,253.653 116.201 L 254.024 117.040 256.331 117.045 C 258.545 117.051,259.264 116.789,258.438 116.279 C 258.328 116.211,258.169 115.876,258.085 115.534 C 258.001 115.192,257.744 114.508,257.515 114.012 C 256.365 111.527,256.162 111.027,256.162 110.677 C 256.162 110.469,256.069 110.298,255.955 110.298 C 255.841 110.298,255.677 109.969,255.591 109.567 C 255.505 109.164,255.299 108.582,255.132 108.272 C 254.642 107.360,253.911 105.615,253.911 105.358 C 253.911 105.227,253.708 104.741,253.461 104.279 C 253.213 103.817,253.011 103.261,253.011 103.042 C 253.011 102.824,252.911 102.645,252.789 102.645 C 252.667 102.645,252.452 102.189,252.312 101.632 C 252.172 101.075,251.972 100.619,251.869 100.619 C 251.765 100.619,251.614 100.264,251.533 99.831 C 251.451 99.398,251.305 99.043,251.207 99.043 C 251.110 99.043,250.908 98.537,250.760 97.918 C 250.611 97.299,250.407 96.792,250.305 96.792 C 250.203 96.792,250.052 96.463,249.968 96.061 C 249.884 95.658,249.686 95.125,249.529 94.876 C 249.372 94.626,249.171 94.094,249.083 93.694 C 248.995 93.293,248.838 92.966,248.734 92.966 C 248.630 92.966,248.476 92.636,248.392 92.234 C 248.060 90.642,247.815 90.490,245.583 90.490 L 243.568 90.490 243.106 91.503 M245.905 96.227 C 245.986 96.662,246.138 97.017,246.243 97.017 C 246.347 97.017,246.504 97.397,246.591 97.862 C 246.678 98.326,246.942 99.131,247.179 99.650 C 247.415 100.169,247.608 100.746,247.608 100.931 C 247.608 101.116,247.710 101.330,247.834 101.407 C 247.957 101.483,248.172 101.996,248.310 102.546 C 248.449 103.095,248.638 103.545,248.732 103.545 C 248.825 103.545,248.965 103.942,249.042 104.427 C 249.120 104.912,249.310 105.359,249.465 105.422 C 249.620 105.485,247.999 105.544,245.864 105.553 C 242.071 105.571,241.216 105.395,242.183 104.797 C 242.295 104.728,242.507 104.165,242.656 103.546 C 242.805 102.927,242.996 102.420,243.082 102.420 C 243.168 102.420,243.352 102.040,243.490 101.576 C 243.868 100.305,244.434 98.752,244.670 98.337 C 244.785 98.135,245.006 97.356,245.160 96.606 C 245.468 95.116,245.676 95.010,245.905 96.227 M220.259 129.904 C 218.154 130.394,213.950 131.354,210.917 132.039 C 207.884 132.723,201.908 134.082,197.636 135.057 C 193.365 136.033,186.224 137.655,181.767 138.662 C 167.282 141.936,166.080 142.231,165.646 142.624 C 165.250 142.982,165.222 143.427,165.222 149.388 L 165.222 155.768 166.052 155.768 C 166.508 155.768,167.293 155.574,167.796 155.337 C 169.665 154.457,170.769 153.996,171.364 153.847 C 171.700 153.762,171.975 153.614,171.975 153.518 C 171.975 153.421,172.330 153.276,172.763 153.194 C 173.196 153.113,173.551 152.959,173.551 152.852 C 173.551 152.746,174.057 152.529,174.676 152.370 C 175.295 152.211,175.802 152.007,175.802 151.917 C 175.802 151.826,176.131 151.681,176.533 151.593 C 176.936 151.506,177.670 151.227,178.165 150.973 C 179.837 150.116,180.189 149.968,180.923 149.811 C 181.325 149.725,181.654 149.566,181.654 149.458 C 181.654 149.349,182.009 149.194,182.442 149.113 C 182.876 149.032,183.230 148.884,183.230 148.786 C 183.230 148.687,183.737 148.477,184.356 148.318 C 184.975 148.159,185.481 147.952,185.481 147.857 C 185.481 147.763,185.836 147.618,186.269 147.537 C 186.702 147.456,187.057 147.310,187.057 147.214 C 187.057 147.117,187.335 146.969,187.676 146.886 C 188.016 146.802,188.751 146.527,189.308 146.274 C 189.865 146.022,190.625 145.678,190.996 145.510 C 191.367 145.342,191.950 145.139,192.290 145.059 C 192.631 144.980,192.909 144.835,192.909 144.738 C 192.909 144.641,193.188 144.497,193.528 144.417 C 193.869 144.338,194.451 144.135,194.823 143.967 C 195.194 143.799,196.005 143.438,196.624 143.165 C 198.643 142.275,199.773 141.703,199.850 141.531 C 199.891 141.438,200.104 141.362,200.323 141.362 C 200.542 141.362,201.175 141.120,201.730 140.825 C 202.285 140.530,203.060 140.218,203.452 140.132 C 203.844 140.046,204.164 139.894,204.164 139.793 C 204.164 139.693,204.519 139.545,204.952 139.463 C 205.385 139.382,205.740 139.229,205.740 139.123 C 205.740 139.017,206.246 138.809,206.866 138.661 C 207.485 138.512,207.991 138.304,207.991 138.198 C 207.991 138.092,208.346 137.939,208.779 137.858 C 209.212 137.777,209.567 137.628,209.567 137.528 C 209.567 137.428,209.896 137.276,210.298 137.191 C 210.701 137.106,211.346 136.845,211.732 136.610 C 212.118 136.376,212.599 136.185,212.801 136.185 C 213.003 136.185,213.168 136.093,213.168 135.982 C 213.168 135.870,213.675 135.658,214.294 135.509 C 214.913 135.361,215.419 135.156,215.419 135.055 C 215.419 134.953,215.748 134.798,216.151 134.709 C 216.553 134.621,217.235 134.360,217.667 134.129 C 218.098 133.898,218.630 133.708,218.849 133.708 C 219.067 133.708,219.246 133.615,219.246 133.501 C 219.246 133.387,219.575 133.224,219.977 133.139 C 220.380 133.054,221.025 132.793,221.411 132.559 C 221.797 132.324,222.278 132.133,222.480 132.133 C 222.682 132.133,222.847 132.043,222.847 131.933 C 222.847 131.823,223.202 131.666,223.635 131.585 C 224.421 131.437,224.423 131.434,224.423 130.209 C 224.423 129.534,224.347 128.989,224.254 128.998 C 224.162 129.007,222.364 129.415,220.259 129.904 " stroke="none" fill="#f7b114" fill-rule="evenodd"></path><path id="path2" d="M220.484 78.500 C 220.113 78.555,219.707 78.681,219.584 78.782 C 219.460 78.882,218.447 79.034,217.333 79.120 C 216.218 79.205,214.613 79.415,213.764 79.585 C 212.916 79.756,211.447 79.964,210.500 80.048 C 209.553 80.132,208.728 80.268,208.666 80.349 C 208.562 80.487,203.917 81.062,202.937 81.058 C 202.695 81.057,202.391 81.142,202.261 81.246 C 202.132 81.350,201.064 81.509,199.887 81.599 C 198.711 81.688,197.648 81.826,197.524 81.905 C 197.308 82.042,193.487 82.581,189.195 83.079 C 188.081 83.209,187.017 83.378,186.832 83.456 C 186.492 83.599,181.934 84.228,178.165 84.651 C 177.051 84.777,175.984 84.964,175.793 85.068 C 175.602 85.172,174.691 85.329,173.767 85.417 C 172.843 85.505,171.227 85.760,170.174 85.984 C 169.122 86.208,167.552 86.459,166.685 86.542 C 165.819 86.624,164.907 86.780,164.660 86.888 C 164.412 86.997,163.323 87.151,162.240 87.232 C 161.156 87.313,160.270 87.453,160.270 87.545 C 160.270 87.636,158.847 87.847,157.107 88.015 C 155.368 88.182,153.893 88.402,153.830 88.504 C 153.767 88.606,153.468 88.689,153.166 88.689 L 152.617 88.689 152.617 117.150 C 152.617 132.804,152.693 145.659,152.786 145.717 C 152.879 145.774,153.330 145.693,153.787 145.536 C 154.245 145.378,155.140 145.181,155.776 145.096 C 156.412 145.012,157.101 144.854,157.307 144.747 C 157.513 144.639,158.542 144.383,159.595 144.178 C 163.119 143.492,163.530 143.402,164.434 143.118 C 164.930 142.962,165.487 142.661,165.672 142.450 C 165.871 142.224,166.890 141.878,168.149 141.610 C 169.325 141.360,171.857 140.790,173.776 140.344 C 175.695 139.898,177.873 139.398,178.616 139.233 C 179.358 139.067,180.929 138.713,182.105 138.446 C 183.281 138.178,184.851 137.825,185.594 137.661 C 186.337 137.497,189.021 136.887,191.559 136.306 C 194.097 135.725,197.946 134.852,200.113 134.367 C 202.279 133.882,204.406 133.389,204.840 133.272 C 205.273 133.156,206.843 132.798,208.329 132.478 C 210.925 131.918,213.015 131.447,216.882 130.552 C 217.873 130.323,219.443 129.965,220.371 129.756 C 221.300 129.548,222.566 129.256,223.185 129.109 L 224.311 128.841 224.368 103.588 L 224.425 78.334 222.792 78.368 C 221.894 78.387,220.855 78.446,220.484 78.500 M294.766 90.484 C 294.271 90.590,293.562 90.837,293.191 91.032 C 292.819 91.227,292.389 91.388,292.234 91.389 C 292.079 91.389,291.953 91.484,291.953 91.600 C 291.953 91.715,291.735 91.879,291.470 91.963 C 290.873 92.153,288.351 94.525,288.351 94.897 C 288.351 95.046,288.209 95.223,288.035 95.290 C 287.861 95.357,287.650 95.722,287.567 96.102 C 287.483 96.482,287.330 96.792,287.226 96.792 C 287.122 96.792,286.966 97.122,286.880 97.524 C 286.794 97.926,286.634 98.368,286.524 98.504 C 285.837 99.360,285.848 107.966,286.537 108.827 C 286.639 108.955,286.794 109.389,286.880 109.792 C 286.966 110.194,287.118 110.523,287.218 110.523 C 287.319 110.523,287.468 110.883,287.551 111.323 C 287.633 111.763,287.847 112.179,288.026 112.248 C 288.205 112.316,288.351 112.468,288.351 112.585 C 288.351 113.818,292.683 117.041,294.358 117.055 C 294.583 117.057,294.918 117.156,295.104 117.276 C 295.395 117.464,295.388 117.495,295.058 117.498 C 293.980 117.508,293.528 117.985,293.528 119.113 C 293.528 120.125,293.488 120.203,292.966 120.203 C 292.473 120.203,292.403 120.300,292.403 120.990 C 292.403 121.681,292.473 121.778,292.966 121.778 L 293.528 121.778 293.528 124.817 C 293.528 128.505,293.665 128.756,295.674 128.756 C 297.279 128.756,297.803 127.498,296.318 127.211 C 295.641 127.080,295.561 126.764,295.558 124.198 L 295.554 121.778 296.117 121.778 C 296.610 121.778,296.680 121.681,296.680 120.990 C 296.680 120.300,296.610 120.203,296.117 120.203 C 295.579 120.203,295.554 120.143,295.554 118.852 L 295.554 117.501 298.467 117.501 C 300.166 117.501,301.438 117.408,301.519 117.276 C 301.596 117.153,301.880 117.048,302.152 117.044 C 303.495 117.025,307.259 114.471,307.259 113.579 C 307.259 113.410,307.411 113.214,307.597 113.143 C 307.783 113.072,307.935 112.858,307.935 112.669 C 307.935 112.479,308.028 112.324,308.142 112.324 C 308.257 112.324,308.474 111.944,308.625 111.480 C 308.777 111.016,308.990 110.578,309.099 110.506 C 309.653 110.145,309.589 108.047,309.024 108.047 C 308.722 108.047,308.377 107.950,308.258 107.830 C 308.139 107.711,307.471 107.547,306.774 107.465 L 305.508 107.316 305.351 108.244 C 305.265 108.755,305.113 109.173,305.013 109.173 C 304.914 109.173,304.762 109.450,304.677 109.790 C 304.528 110.384,304.419 110.543,303.477 111.536 C 301.997 113.097,300.531 113.675,298.047 113.675 C 296.973 113.675,295.998 113.586,295.881 113.477 C 295.763 113.368,295.287 113.158,294.823 113.009 C 294.358 112.861,293.979 112.658,293.979 112.559 C 293.979 112.460,293.700 112.261,293.360 112.118 C 292.751 111.862,291.503 110.349,291.503 109.868 C 291.503 109.733,291.413 109.623,291.302 109.623 C 291.192 109.623,291.031 109.243,290.944 108.779 C 290.857 108.315,290.669 107.863,290.525 107.775 C 290.162 107.550,290.162 100.362,290.526 99.922 C 290.669 99.748,290.858 99.226,290.945 98.762 C 291.031 98.298,291.186 97.918,291.287 97.918 C 291.389 97.918,291.532 97.729,291.605 97.499 C 291.794 96.903,293.370 95.297,293.945 95.115 C 294.211 95.030,294.429 94.871,294.429 94.761 C 294.429 94.652,294.783 94.495,295.217 94.414 C 295.650 94.333,296.005 94.176,296.005 94.066 C 296.005 93.956,297.017 93.866,298.255 93.866 C 299.494 93.866,300.506 93.955,300.506 94.063 C 300.506 94.171,300.816 94.322,301.195 94.398 C 301.573 94.473,302.026 94.663,302.201 94.820 C 302.375 94.976,302.825 95.353,303.201 95.656 C 303.576 95.960,303.883 96.340,303.883 96.500 C 303.883 96.661,303.980 96.792,304.099 96.792 C 304.218 96.792,304.436 97.198,304.585 97.693 C 304.733 98.188,304.940 98.593,305.044 98.593 C 305.148 98.593,305.234 98.743,305.234 98.925 C 305.234 99.274,306.196 99.219,307.147 98.816 C 307.394 98.711,307.977 98.563,308.441 98.487 C 309.194 98.363,309.775 97.468,309.103 97.468 C 309.002 97.468,308.790 96.961,308.632 96.342 C 308.473 95.723,308.251 95.217,308.139 95.217 C 308.027 95.217,307.935 95.070,307.935 94.890 C 307.935 94.711,307.808 94.483,307.653 94.384 C 307.498 94.285,307.239 93.950,307.077 93.641 C 306.916 93.331,306.429 92.825,305.995 92.515 C 305.561 92.206,305.086 91.851,304.939 91.728 C 303.485 90.506,297.866 89.819,294.766 90.484 M318.572 90.471 C 318.170 90.574,317.715 90.759,317.559 90.884 C 317.404 91.008,317.031 91.185,316.731 91.277 C 315.369 91.696,313.337 94.222,313.337 95.496 C 313.337 95.714,313.236 95.892,313.112 95.892 C 312.982 95.892,312.887 96.605,312.887 97.580 C 312.887 98.509,312.977 99.268,313.087 99.268 C 313.197 99.268,313.353 99.623,313.435 100.056 C 313.516 100.490,313.679 100.844,313.797 100.844 C 313.916 100.844,314.012 100.971,314.011 101.125 C 314.009 101.562,316.056 103.288,316.760 103.443 C 317.106 103.519,317.389 103.665,317.389 103.768 C 317.389 103.872,317.794 104.024,318.289 104.108 C 318.784 104.192,319.190 104.343,319.190 104.445 C 319.190 104.547,319.924 104.752,320.822 104.901 C 321.719 105.051,322.557 105.256,322.684 105.357 C 322.811 105.459,323.444 105.612,324.091 105.698 C 324.738 105.784,325.267 105.925,325.267 106.012 C 325.267 106.098,325.771 106.285,326.387 106.428 C 330.373 107.348,330.367 111.528,326.378 113.168 C 324.041 114.129,319.609 113.643,318.242 112.277 C 318.020 112.055,317.738 111.874,317.614 111.874 C 317.490 111.874,317.389 111.722,317.389 111.536 C 317.389 111.351,317.294 111.199,317.178 111.199 C 317.063 111.199,316.840 110.844,316.683 110.411 C 316.526 109.977,316.317 109.623,316.218 109.623 C 316.119 109.623,316.038 109.327,316.038 108.966 C 316.038 107.666,315.929 107.597,313.876 107.597 L 311.986 107.597 311.986 108.709 C 311.986 109.321,312.074 109.876,312.182 109.942 C 312.290 110.009,312.446 110.491,312.530 111.014 C 312.808 112.756,315.125 115.569,316.770 116.162 C 317.234 116.329,317.614 116.544,317.614 116.638 C 317.614 116.733,318.123 116.878,318.745 116.961 C 319.366 117.043,319.929 117.198,319.996 117.306 C 320.155 117.564,326.330 117.560,326.489 117.302 C 326.557 117.193,327.069 117.035,327.628 116.951 C 328.187 116.867,328.644 116.714,328.644 116.612 C 328.644 116.509,328.878 116.366,329.165 116.294 C 329.644 116.174,329.919 115.983,331.244 114.856 C 331.634 114.524,332.345 113.329,333.182 111.596 C 333.439 111.065,333.423 107.431,333.163 107.270 C 333.049 107.200,332.889 106.839,332.808 106.469 C 332.726 106.099,332.567 105.796,332.453 105.796 C 332.339 105.796,332.246 105.670,332.247 105.515 C 332.249 105.104,330.241 103.374,329.565 103.205 C 329.246 103.125,328.934 102.985,328.871 102.895 C 328.703 102.654,325.994 101.805,324.817 101.624 C 324.260 101.539,323.703 101.390,323.579 101.295 C 323.455 101.199,322.620 100.999,321.722 100.850 C 320.824 100.700,320.090 100.497,320.090 100.399 C 320.090 100.300,319.736 100.152,319.302 100.071 C 318.869 99.990,318.514 99.843,318.514 99.745 C 318.514 99.646,318.261 99.450,317.952 99.309 C 317.642 99.168,317.389 98.899,317.389 98.711 C 317.389 98.522,317.288 98.368,317.164 98.368 C 316.840 98.368,316.886 96.612,317.220 96.208 C 318.194 95.029,318.816 94.515,319.412 94.396 C 319.785 94.321,320.090 94.171,320.090 94.063 C 320.090 93.955,321.255 93.866,322.679 93.866 C 324.102 93.866,325.267 93.947,325.267 94.046 C 325.267 94.145,325.597 94.350,325.999 94.501 C 327.377 95.019,328.644 96.730,328.644 98.073 C 328.644 98.578,328.703 98.593,330.670 98.593 L 332.696 98.593 332.696 97.693 C 332.696 97.198,332.594 96.792,332.470 96.792 C 332.347 96.792,332.245 96.520,332.245 96.188 C 332.245 95.448,331.402 93.649,330.978 93.486 C 330.809 93.421,330.670 93.233,330.670 93.069 C 330.670 92.905,330.340 92.541,329.938 92.260 C 329.536 91.979,329.156 91.683,329.094 91.602 C 328.326 90.594,321.129 89.820,318.572 90.471 M260.889 103.873 L 260.889 117.268 261.452 117.409 L 262.015 117.550 262.015 123.153 L 262.015 128.756 262.915 128.756 C 263.410 128.756,263.815 128.655,263.815 128.531 C 263.815 128.407,263.967 128.306,264.153 128.306 C 264.339 128.306,264.491 128.407,264.491 128.531 C 264.491 128.925,266.927 128.792,267.590 128.362 C 269.040 127.422,269.443 126.534,269.443 124.276 C 269.443 120.880,268.363 119.786,265.259 120.035 L 263.815 120.151 263.815 118.862 C 263.815 117.706,263.873 117.547,264.378 117.317 L 264.941 117.061 264.941 111.429 L 264.941 105.796 267.742 105.796 C 270.219 105.796,270.639 105.853,271.377 106.289 C 272.298 106.832,273.270 107.671,273.270 107.923 C 273.270 108.011,273.608 108.506,274.023 109.022 C 274.437 109.538,274.839 110.138,274.916 110.355 C 274.993 110.571,275.161 110.748,275.288 110.748 C 275.416 110.748,275.521 110.845,275.521 110.964 C 275.521 111.174,276.311 112.451,276.984 113.327 C 277.169 113.568,277.321 113.898,277.321 114.058 C 277.321 114.219,277.410 114.350,277.519 114.350 C 277.628 114.350,277.843 114.654,277.997 115.025 C 278.150 115.397,278.363 115.701,278.470 115.701 C 278.576 115.701,278.726 115.949,278.802 116.252 C 279.034 117.177,279.811 117.501,281.797 117.501 C 284.255 117.501,284.934 117.051,284.018 116.030 C 283.500 115.453,283.289 115.142,282.949 114.463 C 282.764 114.091,282.558 113.737,282.491 113.675 C 282.306 113.502,280.799 111.157,280.469 110.528 C 280.308 110.221,280.066 109.845,279.931 109.692 C 279.307 108.986,279.122 108.729,279.118 108.563 C 279.112 108.321,277.093 106.203,276.409 105.721 C 275.753 105.259,276.012 105.005,277.373 104.775 C 277.840 104.696,278.222 104.539,278.222 104.426 C 278.222 104.313,278.319 104.221,278.437 104.221 C 279.159 104.221,281.373 102.080,281.373 101.382 C 281.373 101.231,281.476 101.072,281.602 101.030 C 282.757 100.645,282.215 94.951,280.864 93.269 C 279.731 91.860,278.914 91.299,277.209 90.757 C 276.961 90.678,273.188 90.583,268.824 90.546 L 260.889 90.478 260.889 103.873 M192.605 94.822 C 195.174 96.161,195.836 97.772,195.836 102.686 L 195.836 106.021 193.274 106.021 L 190.712 106.021 190.621 103.101 C 190.504 99.369,190.279 98.964,188.264 98.865 C 187.070 98.806,186.869 98.862,186.373 99.389 L 185.819 99.980 185.751 108.797 C 185.665 120.131,185.633 119.981,188.135 119.974 C 190.291 119.968,190.482 119.609,190.647 115.250 L 190.771 111.986 193.247 111.986 L 195.723 111.986 195.794 115.476 C 195.926 121.981,194.872 123.776,190.423 124.625 C 185.722 125.522,181.869 123.961,180.709 120.691 C 180.129 119.053,180.301 98.945,180.906 97.693 C 181.699 96.053,182.959 95.049,185.256 94.226 C 186.396 93.818,191.468 94.229,192.605 94.822 M166.127 106.809 C 166.192 113.618,166.268 119.208,166.296 119.230 C 166.325 119.252,166.507 119.429,166.702 119.624 C 167.233 120.155,169.517 120.105,170.206 119.547 L 170.737 119.117 170.801 106.717 L 170.864 94.316 173.446 94.316 L 176.027 94.316 176.022 107.316 C 176.017 119.914,176.003 120.346,175.558 121.328 C 173.370 126.154,163.369 126.117,161.253 121.275 C 160.843 120.339,160.441 95.593,160.820 94.607 C 160.911 94.369,161.500 94.316,163.474 94.365 L 166.010 94.429 166.127 106.809 M212.101 94.859 C 215.208 96.023,215.931 97.782,215.830 103.936 C 215.746 109.061,215.027 110.992,212.945 111.686 C 212.802 111.733,213.527 114.177,214.737 117.729 C 217.289 125.219,217.347 124.479,214.209 124.479 L 211.647 124.479 211.419 123.860 C 211.001 122.730,210.294 120.583,209.008 116.545 L 207.737 112.549 206.742 112.549 L 205.747 112.549 205.687 118.458 L 205.627 124.367 202.983 124.430 L 200.338 124.494 200.338 109.387 L 200.338 94.281 205.684 94.369 C 210.106 94.443,211.215 94.528,212.101 94.859 M276.233 94.971 C 278.457 96.496,278.562 99.792,276.421 100.892 C 276.111 101.051,275.796 101.267,275.719 101.372 C 275.522 101.641,271.452 101.948,267.923 101.960 L 264.941 101.970 264.941 98.131 L 264.941 94.293 270.192 94.361 C 275.317 94.427,275.461 94.442,276.233 94.971 M205.740 103.577 L 205.740 108.112 207.593 107.985 C 210.407 107.792,210.953 106.752,210.607 102.251 C 210.389 99.413,209.993 99.043,207.170 99.043 L 205.740 99.043 205.740 103.577 M244.509 122.847 L 244.569 128.644 248.340 128.705 L 252.110 128.767 252.110 127.974 L 252.110 127.181 249.409 127.181 L 246.708 127.181 246.708 122.116 L 246.708 117.051 245.579 117.051 L 244.449 117.051 244.509 122.847 M254.586 120.132 C 254.008 120.370,253.221 121.346,253.094 121.982 C 252.844 123.232,254.646 123.593,255.212 122.406 C 255.766 121.245,258.188 121.367,258.188 122.556 C 258.188 123.193,258.028 123.251,255.656 123.473 C 254.820 123.551,254.136 123.701,254.136 123.807 C 254.136 123.913,253.929 124.065,253.677 124.145 C 253.404 124.231,253.164 124.558,253.086 124.948 C 253.014 125.309,252.866 125.605,252.757 125.605 C 252.649 125.605,252.560 125.858,252.560 126.168 C 252.560 126.477,252.649 126.730,252.757 126.730 C 252.866 126.730,253.012 127.009,253.083 127.349 C 253.316 128.468,257.062 129.442,257.625 128.531 C 257.810 128.232,258.638 128.242,258.638 128.544 C 258.638 128.686,259.064 128.754,259.707 128.712 C 260.638 128.653,260.766 128.585,260.692 128.194 C 260.645 127.946,260.544 126.272,260.467 124.474 C 260.282 120.178,260.232 120.111,257.106 120.041 C 255.906 120.015,254.772 120.055,254.586 120.132 M271.748 120.303 C 271.345 120.484,270.921 120.880,270.806 121.182 C 270.691 121.484,270.467 121.775,270.307 121.828 C 269.828 121.988,269.896 126.315,270.385 126.804 C 270.593 127.013,270.826 127.378,270.901 127.617 C 270.978 127.859,271.332 128.114,271.704 128.196 C 272.070 128.276,272.369 128.435,272.369 128.549 C 272.369 128.663,273.129 128.756,274.057 128.756 C 275.033 128.756,275.746 128.661,275.746 128.531 C 275.746 128.407,275.856 128.306,275.991 128.306 C 276.338 128.306,277.546 127.126,277.546 126.787 C 277.546 126.632,277.648 126.505,277.772 126.505 C 278.184 126.505,278.048 122.519,277.612 121.827 C 276.491 120.047,273.845 119.359,271.748 120.303 M280.299 120.144 L 279.112 120.226 279.173 124.435 L 279.235 128.644 280.166 128.712 L 281.097 128.780 281.182 125.494 C 281.278 121.810,281.338 121.675,282.800 121.889 C 283.535 121.996,283.681 121.947,283.782 121.559 C 283.848 121.308,283.991 121.103,284.101 121.103 C 284.210 121.103,284.299 120.912,284.299 120.679 C 284.299 120.005,283.611 119.912,280.299 120.144 M285.875 120.131 C 284.895 120.532,284.147 121.844,284.416 122.691 C 284.635 123.381,286.182 123.235,286.284 122.514 C 286.453 121.324,289.292 121.317,289.433 122.506 C 289.511 123.157,289.359 123.214,286.832 123.477 C 286.058 123.557,285.425 123.703,285.425 123.800 C 285.425 123.897,285.222 124.030,284.973 124.095 C 284.691 124.169,284.469 124.474,284.382 124.909 C 284.306 125.292,284.154 125.605,284.046 125.605 C 283.938 125.605,283.849 125.858,283.849 126.168 C 283.849 126.477,283.938 126.730,284.046 126.730 C 284.154 126.730,284.306 127.044,284.382 127.426 C 284.469 127.862,284.691 128.167,284.973 128.241 C 285.222 128.305,285.425 128.448,285.425 128.557 C 285.425 128.667,286.185 128.756,287.113 128.756 C 288.089 128.756,288.801 128.661,288.801 128.531 C 288.801 128.407,289.055 128.306,289.364 128.306 C 289.674 128.306,289.927 128.407,289.927 128.531 C 289.927 128.655,290.372 128.756,290.916 128.756 L 291.904 128.756 291.811 126.337 C 291.565 119.921,291.670 120.114,288.395 120.041 C 287.195 120.015,286.061 120.055,285.875 120.131 M298.984 120.303 C 298.579 120.485,298.182 120.815,298.100 121.037 C 298.019 121.259,297.828 121.516,297.676 121.608 C 296.937 122.056,297.051 126.310,297.825 127.203 C 298.062 127.476,298.255 127.777,298.255 127.872 C 298.255 127.968,298.559 128.112,298.931 128.194 C 299.302 128.275,299.606 128.435,299.606 128.549 C 299.606 128.860,302.400 128.799,303.016 128.475 C 304.626 127.628,305.234 126.464,305.234 124.221 C 305.234 122.360,305.063 121.900,303.918 120.661 C 303.260 119.950,300.254 119.732,298.984 120.303 M307.316 120.134 L 306.134 120.226 306.134 124.491 L 306.134 128.756 307.034 128.756 L 307.935 128.756 307.935 126.052 C 307.935 124.565,308.029 123.172,308.143 122.957 C 308.258 122.742,308.412 122.376,308.485 122.143 C 308.594 121.797,308.765 121.744,309.433 121.853 C 309.882 121.926,310.437 121.885,310.668 121.761 C 311.004 121.581,311.086 121.617,311.086 121.945 C 311.086 122.170,311.230 122.558,311.405 122.809 C 311.581 123.059,311.794 123.639,311.880 124.097 C 311.966 124.555,312.119 124.930,312.219 124.930 C 312.319 124.930,312.470 125.259,312.553 125.661 C 312.637 126.064,312.832 126.595,312.986 126.843 C 314.065 128.578,313.276 130.383,311.621 129.967 C 311.082 129.832,311.059 129.866,311.127 130.698 L 311.199 131.570 312.532 131.639 C 314.037 131.716,314.558 131.362,315.113 129.882 C 315.610 128.556,315.842 127.994,316.152 127.366 C 316.315 127.034,316.575 126.198,316.730 125.509 C 316.884 124.819,317.091 124.254,317.189 124.254 C 317.288 124.254,317.435 123.900,317.516 123.467 C 317.598 123.033,317.741 122.679,317.836 122.679 C 317.931 122.679,318.066 122.387,318.138 122.030 C 318.209 121.673,318.334 121.116,318.415 120.792 C 318.559 120.220,318.532 120.203,317.526 120.203 C 316.654 120.203,316.488 120.271,316.488 120.634 C 316.488 120.871,316.412 121.099,316.320 121.140 C 316.094 121.241,315.383 123.203,315.089 124.536 C 314.788 125.900,314.575 125.886,314.237 124.479 C 314.089 123.860,313.885 123.354,313.785 123.354 C 313.684 123.354,313.533 122.949,313.450 122.454 C 313.366 121.958,313.205 121.553,313.092 121.553 C 312.979 121.553,312.887 121.306,312.887 121.004 C 312.887 120.702,312.811 120.409,312.718 120.354 C 312.443 120.191,308.596 120.034,307.316 120.134 M267.076 122.294 C 267.576 122.830,267.737 125.482,267.288 125.782 C 267.155 125.870,266.981 126.120,266.901 126.337 C 266.821 126.553,266.601 126.730,266.411 126.730 C 266.222 126.730,266.066 126.832,266.066 126.956 C 266.066 127.079,265.961 127.181,265.832 127.181 C 265.515 127.181,265.056 126.796,264.097 125.726 C 262.449 123.889,265.397 120.493,267.076 122.294 M274.685 121.792 C 275.369 121.982,275.563 122.159,275.669 122.692 C 275.742 123.056,275.891 123.354,275.999 123.354 C 276.107 123.354,276.196 123.759,276.196 124.254 C 276.196 124.750,276.107 125.155,275.999 125.155 C 275.891 125.155,275.741 125.461,275.666 125.835 C 275.560 126.366,275.381 126.544,274.850 126.651 C 274.476 126.726,274.170 126.875,274.170 126.984 C 274.170 127.092,274.064 127.181,273.935 127.181 C 273.619 127.181,273.160 126.796,272.200 125.726 C 271.479 124.921,272.114 122.310,273.155 121.804 C 273.743 121.518,273.696 121.518,274.685 121.792 M301.905 121.788 C 303.577 122.252,303.715 126.325,302.069 126.654 C 301.705 126.727,301.407 126.875,301.407 126.984 C 301.407 127.092,301.255 127.181,301.069 127.181 C 300.884 127.181,300.732 127.079,300.732 126.956 C 300.732 126.832,300.577 126.730,300.389 126.730 C 300.201 126.730,299.931 126.477,299.790 126.168 C 299.649 125.858,299.449 125.605,299.345 125.605 C 299.241 125.605,299.156 124.997,299.156 124.254 C 299.156 123.512,299.250 122.904,299.366 122.904 C 299.481 122.904,299.642 122.695,299.723 122.439 C 299.804 122.183,300.090 121.886,300.357 121.778 C 300.995 121.521,300.942 121.520,301.905 121.788 M258.239 125.055 C 258.308 125.124,258.260 125.454,258.134 125.787 C 257.829 126.588,255.712 127.623,255.712 126.971 C 255.712 126.855,255.509 126.696,255.262 126.618 C 254.257 126.299,255.147 125.239,256.542 125.094 C 257.014 125.045,257.560 124.988,257.757 124.967 C 257.953 124.947,258.169 124.986,258.239 125.055 M289.474 125.211 C 289.465 126.025,289.162 126.489,288.553 126.623 C 288.195 126.702,287.901 126.859,287.901 126.973 C 287.901 127.087,287.698 127.181,287.451 127.181 C 287.203 127.181,287.001 127.079,287.001 126.956 C 287.001 126.832,286.845 126.730,286.656 126.730 C 286.095 126.730,286.001 126.068,286.496 125.607 C 286.894 125.237,287.283 125.140,289.083 124.967 C 289.299 124.947,289.475 125.056,289.474 125.211 " stroke="none" fill="#043ba3" fill-rule="evenodd"></path><path id="path3" d="M228.250 109.383 L 228.250 131.458 228.926 131.458 L 229.603 131.458 229.545 109.454 L 229.488 87.451 228.869 87.380 L 228.250 87.308 228.250 109.383 M160.824 94.598 C 160.764 94.752,160.742 100.450,160.774 107.259 L 160.833 119.640 160.945 106.978 C 161.007 100.014,161.029 94.316,160.995 94.316 C 160.960 94.316,160.883 94.443,160.824 94.598 M165.898 106.426 L 166.010 118.514 166.068 106.597 C 166.100 100.043,166.050 94.604,165.956 94.510 C 165.862 94.416,165.836 99.778,165.898 106.426 M209.063 94.475 C 209.343 94.529,209.748 94.527,209.963 94.471 C 210.178 94.415,209.949 94.371,209.454 94.373 C 208.959 94.376,208.783 94.422,209.063 94.475 M193.360 95.287 C 193.360 95.326,193.689 95.655,194.091 96.019 L 194.823 96.680 194.162 95.948 C 193.545 95.266,193.360 95.113,193.360 95.287 M187.676 98.752 C 187.954 98.806,188.410 98.806,188.689 98.752 C 188.967 98.698,188.739 98.654,188.182 98.654 C 187.625 98.654,187.397 98.698,187.676 98.752 M205.615 99.106 C 205.555 99.265,205.535 101.367,205.571 103.777 L 205.638 108.160 205.689 103.612 L 205.740 99.064 207.259 98.985 L 208.779 98.906 207.252 98.862 C 206.186 98.832,205.693 98.905,205.615 99.106 M180.407 109.398 C 180.407 114.412,180.436 116.463,180.472 113.956 C 180.509 111.449,180.509 107.347,180.472 104.840 C 180.436 102.333,180.407 104.384,180.407 109.398 M210.519 101.069 C 210.519 101.503,210.566 101.680,210.622 101.463 C 210.679 101.246,210.679 100.892,210.622 100.675 C 210.566 100.459,210.519 100.636,210.519 101.069 M213.942 110.805 L 213.281 111.536 214.012 110.875 C 214.415 110.512,214.744 110.182,214.744 110.144 C 214.744 109.970,214.558 110.123,213.942 110.805 M190.806 112.043 C 190.748 112.136,191.847 112.212,193.247 112.212 C 194.647 112.212,195.746 112.136,195.688 112.043 C 195.631 111.950,194.532 111.874,193.247 111.874 C 191.962 111.874,190.863 111.950,190.806 112.043 M205.515 118.447 C 205.453 121.753,205.480 124.380,205.575 124.285 C 205.670 124.189,205.721 121.485,205.687 118.274 L 205.627 112.437 205.515 118.447 M167.755 120.139 C 168.095 120.190,168.652 120.190,168.993 120.139 C 169.333 120.087,169.055 120.045,168.374 120.045 C 167.693 120.045,167.414 120.087,167.755 120.139 M187.563 120.139 C 187.904 120.190,188.461 120.190,188.801 120.139 C 189.142 120.087,188.863 120.045,188.182 120.045 C 187.501 120.045,187.223 120.087,187.563 120.139 M174.325 122.960 L 173.663 123.692 174.395 123.030 C 174.797 122.667,175.127 122.338,175.127 122.299 C 175.127 122.125,174.941 122.278,174.325 122.960 M167.871 124.868 C 168.276 124.918,168.884 124.917,169.222 124.865 C 169.560 124.814,169.229 124.773,168.486 124.774 C 167.743 124.776,167.467 124.818,167.871 124.868 M187.563 124.866 C 187.904 124.917,188.461 124.917,188.801 124.866 C 189.142 124.814,188.863 124.772,188.182 124.772 C 187.501 124.772,187.223 124.814,187.563 124.866 " stroke="none" fill="#5676ba" fill-rule="evenodd"></path><path id="path4" d="M186.269 94.204 C 186.393 94.247,187.558 94.323,188.858 94.373 C 190.158 94.423,190.968 94.390,190.658 94.300 C 190.114 94.141,185.814 94.048,186.269 94.204 M161.093 94.485 C 161.035 94.578,162.083 94.654,163.421 94.654 C 164.760 94.654,165.808 94.578,165.750 94.485 C 165.693 94.392,164.645 94.316,163.421 94.316 C 162.198 94.316,161.150 94.392,161.093 94.485 M171.131 94.465 C 170.911 94.554,170.850 97.197,170.850 106.618 C 170.850 115.077,170.775 118.803,170.597 119.148 C 170.384 119.562,170.393 119.594,170.653 119.347 C 170.905 119.109,170.983 116.793,171.075 106.854 L 171.187 94.654 173.438 94.654 L 175.689 94.654 175.805 107.259 L 175.920 119.865 175.974 107.227 C 176.022 95.880,175.991 94.576,175.671 94.453 C 175.249 94.291,171.538 94.301,171.131 94.465 M184.693 94.541 C 184.120 94.788,184.711 94.788,185.481 94.541 C 185.934 94.396,185.956 94.360,185.594 94.355 C 185.346 94.351,184.941 94.435,184.693 94.541 M200.608 94.586 C 200.178 95.016,200.222 123.878,200.652 124.235 C 200.857 124.405,201.743 124.474,203.185 124.432 L 205.402 124.367 205.462 118.458 L 205.522 112.549 206.633 112.549 C 207.453 112.549,207.804 112.652,207.973 112.943 C 208.099 113.160,208.205 113.223,208.209 113.083 C 208.223 112.576,207.557 112.299,206.489 112.367 L 205.402 112.437 205.342 118.353 L 205.282 124.270 202.979 124.206 L 200.675 124.142 200.675 109.398 L 200.675 94.654 204.727 94.533 L 208.779 94.413 204.828 94.365 C 201.999 94.330,200.801 94.393,200.608 94.586 M209.623 94.697 C 209.840 94.753,210.194 94.753,210.411 94.697 C 210.627 94.640,210.450 94.594,210.017 94.594 C 209.584 94.594,209.406 94.640,209.623 94.697 M213.056 95.585 C 213.180 95.694,213.635 96.086,214.068 96.456 L 214.855 97.130 214.293 96.490 C 213.984 96.138,213.528 95.746,213.281 95.619 C 213.033 95.491,212.932 95.476,213.056 95.585 M187.135 98.540 C 186.992 98.631,187.463 98.706,188.182 98.706 C 188.902 98.706,189.373 98.631,189.230 98.540 C 189.087 98.449,188.616 98.375,188.182 98.375 C 187.749 98.375,187.278 98.449,187.135 98.540 M190.127 99.381 C 190.647 100.270,190.658 100.283,190.658 100.006 C 190.658 99.875,190.450 99.529,190.195 99.237 L 189.731 98.706 190.127 99.381 M205.390 99.106 C 205.329 99.265,205.307 101.367,205.341 103.777 L 205.402 108.160 207.203 108.173 L 209.004 108.187 207.251 108.108 L 205.497 108.029 205.562 103.423 C 205.626 98.897,205.612 98.529,205.390 99.106 M180.633 109.398 C 180.633 115.155,180.662 117.510,180.698 114.631 C 180.733 111.753,180.733 107.043,180.698 104.164 C 180.662 101.286,180.633 103.641,180.633 109.398 M209.975 99.669 C 210.308 100.014,210.622 100.266,210.674 100.231 C 210.804 100.143,209.755 99.043,209.542 99.043 C 209.447 99.043,209.642 99.325,209.975 99.669 M195.659 102.814 L 195.611 105.796 193.254 105.796 L 190.897 105.796 190.823 103.095 L 190.749 100.393 190.760 103.151 L 190.771 105.909 193.195 105.973 C 196.081 106.049,195.873 106.318,195.779 102.632 L 195.708 99.831 195.659 102.814 M215.735 103.433 C 215.736 105.414,215.770 106.194,215.812 105.167 C 215.854 104.139,215.854 102.519,215.811 101.565 C 215.769 100.611,215.735 101.452,215.735 103.433 M185.584 109.398 C 185.584 114.536,185.614 116.638,185.650 114.069 C 185.686 111.500,185.686 107.296,185.650 104.727 C 185.614 102.158,185.584 104.260,185.584 109.398 M210.777 103.545 C 210.777 104.969,210.814 105.551,210.859 104.840 C 210.903 104.128,210.903 102.963,210.859 102.251 C 210.814 101.539,210.777 102.122,210.777 103.545 M210.182 107.205 L 209.785 107.935 210.239 107.403 C 210.625 106.951,210.831 106.468,210.636 106.473 C 210.605 106.474,210.401 106.803,210.182 107.205 M214.968 109.176 C 214.810 109.557,214.181 110.306,213.569 110.841 L 212.457 111.814 212.736 112.746 C 212.890 113.258,213.060 113.633,213.114 113.579 C 213.169 113.524,213.092 113.114,212.945 112.667 C 212.680 111.863,212.688 111.845,213.718 110.938 C 214.692 110.081,215.577 108.805,215.354 108.582 C 215.299 108.528,215.126 108.795,214.968 109.176 M190.760 112.385 C 190.696 112.550,190.676 113.997,190.715 115.600 L 190.786 118.514 190.835 115.419 L 190.884 112.324 193.241 112.324 L 195.599 112.324 195.670 115.532 L 195.741 118.739 195.732 115.476 L 195.723 112.212 193.299 112.148 C 191.438 112.099,190.848 112.154,190.760 112.385 M213.522 115.025 C 213.605 115.335,213.767 115.740,213.882 115.926 C 214.027 116.160,214.044 116.092,213.940 115.701 C 213.857 115.391,213.695 114.986,213.580 114.800 C 213.435 114.566,213.418 114.634,213.522 115.025 M208.698 115.025 C 208.698 115.211,208.785 115.566,208.891 115.813 C 209.013 116.097,209.085 116.139,209.085 115.926 C 209.085 115.740,208.998 115.385,208.891 115.138 C 208.769 114.854,208.698 114.812,208.698 115.025 M214.211 117.051 C 214.287 117.361,214.488 117.918,214.657 118.289 C 214.904 118.832,214.937 118.854,214.826 118.402 C 214.750 118.092,214.550 117.535,214.381 117.164 C 214.134 116.621,214.100 116.599,214.211 117.051 M165.906 118.653 C 165.895 119.109,166.740 120.205,167.096 120.196 C 167.241 120.192,167.174 120.081,166.946 119.948 C 166.719 119.816,166.393 119.388,166.224 118.998 C 166.054 118.608,165.911 118.453,165.906 118.653 M185.706 119.052 C 185.706 119.266,186.806 120.314,186.894 120.185 C 186.929 120.133,186.677 119.818,186.332 119.485 C 185.988 119.153,185.706 118.958,185.706 119.052 M160.961 119.663 C 160.945 120.142,161.392 121.633,161.514 121.508 C 161.551 121.471,161.445 120.934,161.278 120.315 C 161.112 119.696,160.969 119.402,160.961 119.663 M167.867 120.361 C 168.146 120.415,168.602 120.415,168.880 120.361 C 169.159 120.308,168.931 120.264,168.374 120.264 C 167.817 120.264,167.589 120.308,167.867 120.361 M187.676 120.361 C 187.954 120.415,188.410 120.415,188.689 120.361 C 188.967 120.308,188.739 120.264,188.182 120.264 C 187.625 120.264,187.397 120.308,187.676 120.361 M175.126 121.555 C 174.968 121.935,174.423 122.609,173.914 123.053 C 173.405 123.496,173.191 123.754,173.438 123.626 C 174.293 123.183,175.799 121.250,175.513 120.964 C 175.458 120.909,175.283 121.175,175.126 121.555 M181.211 121.602 C 181.199 121.876,182.590 123.358,183.092 123.606 C 183.354 123.735,183.246 123.578,182.852 123.256 C 182.459 122.934,181.930 122.394,181.678 122.056 C 181.425 121.717,181.215 121.513,181.211 121.602 M162.054 122.381 C 162.500 123.053,163.795 124.030,164.236 124.028 C 164.345 124.028,164.080 123.818,163.647 123.561 C 163.213 123.304,162.571 122.773,162.218 122.380 L 161.578 121.666 162.054 122.381 M192.797 123.594 C 192.425 123.832,192.237 124.027,192.378 124.028 C 192.519 124.029,192.874 123.830,193.166 123.587 C 193.835 123.029,193.674 123.032,192.797 123.594 M184.243 124.150 C 184.615 124.320,185.121 124.457,185.369 124.454 C 185.616 124.452,185.363 124.306,184.806 124.130 C 183.556 123.736,183.355 123.743,184.243 124.150 M216.545 124.006 C 216.545 124.212,215.919 124.265,214.090 124.212 C 212.739 124.173,211.682 124.218,211.739 124.311 C 211.906 124.579,216.497 124.513,216.667 124.239 C 216.748 124.107,216.754 123.939,216.680 123.864 C 216.606 123.790,216.545 123.854,216.545 124.006 M164.772 124.244 C 164.958 124.370,165.304 124.474,165.541 124.476 C 166.117 124.481,165.937 124.352,165.110 124.167 C 164.617 124.056,164.526 124.077,164.772 124.244 M171.412 124.254 C 171.129 124.376,171.087 124.448,171.300 124.448 C 171.486 124.448,171.840 124.361,172.088 124.254 C 172.372 124.132,172.413 124.061,172.200 124.061 C 172.015 124.061,171.660 124.148,171.412 124.254 M191.109 124.254 C 190.645 124.403,190.625 124.438,190.996 124.454 C 191.244 124.464,191.598 124.374,191.784 124.254 C 192.178 123.999,191.904 123.999,191.109 124.254 M167.425 124.646 C 168.079 124.691,169.092 124.691,169.676 124.645 C 170.259 124.598,169.724 124.561,168.486 124.562 C 167.248 124.562,166.770 124.600,167.425 124.646 M187.113 124.645 C 187.701 124.691,188.663 124.691,189.252 124.645 C 189.840 124.599,189.358 124.561,188.182 124.561 C 187.006 124.561,186.525 124.599,187.113 124.645 " stroke="none" fill="#6c8acc" fill-rule="evenodd"></path></g></svg>